<?xml version="1.0" standalone="no"?>
<!DOCTYPE svg PUBLIC "-//W3C//DTD SVG 20010904//EN"
 "http://www.w3.org/TR/2001/REC-SVG-20010904/DTD/svg10.dtd">
<svg version="1.0" xmlns="http://www.w3.org/2000/svg"
 width="489.000000pt" height="489.000000pt" viewBox="0 0 489.000000 489.000000"
 preserveAspectRatio="xMidYMid meet">
<metadata>
Created by potrace 1.16, written by Peter Selinger 2001-2019
</metadata>
<g transform="translate(0.000000,489.000000) scale(0.100000,-0.100000)"
fill="#000000" stroke="none">
<path d="M2165 3397 c-570 -988 -715 -1240 -713 -1241 15 -5 948 6 948 12 0 4
-21 15 -46 26 -52 21 -142 100 -183 160 -123 180 -98 439 57 599 177 183 476
190 665 17 30 -27 57 -47 59 -44 3 2 -20 48 -52 102 -32 53 -149 256 -261 450
-112 193 -208 352 -214 352 -5 0 -122 -195 -260 -433z"/>
<path d="M3183 3038 c-35 -39 -153 -188 -153 -194 0 -3 6 -11 13 -18 6 -8 45
-54 86 -105 41 -50 77 -91 80 -91 7 0 341 415 341 424 0 3 -78 6 -173 6 -167
0 -174 -1 -194 -22z"/>
<path d="M2502 2829 c-18 -5 -55 -31 -81 -57 -77 -74 -91 -159 -43 -253 38
-76 92 -112 177 -117 92 -6 138 19 225 123 39 45 70 86 70 90 0 23 -142 180
-182 201 -35 18 -125 26 -166 13z"/>
<path d="M2964 2339 c-55 -69 -154 -147 -196 -156 -15 -3 -28 -11 -28 -17 0
-13 653 -12 657 1 2 5 -24 14 -58 20 -76 14 -149 58 -244 146 -40 37 -75 67
-78 67 -2 0 -26 -27 -53 -61z"/>
<path d="M3764 2151 c-50 -30 -74 -72 -74 -128 0 -148 168 -207 264 -93 22 26
26 42 26 90 0 49 -4 64 -27 91 -49 58 -131 76 -189 40z m132 -40 c93 -57 49
-201 -61 -201 -53 0 -91 28 -106 80 -10 32 -9 44 7 76 31 64 99 82 160 45z"/>
<path d="M3780 2020 c0 -73 3 -90 15 -90 10 0 15 11 15 35 0 19 4 35 9 35 5 0
19 -16 31 -35 21 -33 43 -44 54 -27 3 5 -4 21 -14 37 -19 28 -19 29 1 42 47
34 5 93 -66 93 l-45 0 0 -90z"/>
<path d="M1140 1965 l0 -45 65 0 65 0 0 -190 0 -190 50 0 50 0 0 190 0 190 70
0 70 0 0 45 0 45 -185 0 -185 0 0 -45z"/>
<path d="M2670 1775 l0 -235 55 0 55 0 0 80 c0 90 -6 84 102 94 66 5 105 28
124 71 11 26 13 27 14 8 0 -20 5 -23 39 -23 30 0 42 5 55 25 11 17 26 25 44
25 61 0 70 -43 10 -54 -87 -17 -120 -30 -143 -58 -38 -45 -33 -83 15 -130 35
-33 47 -38 87 -38 34 0 53 6 70 22 l23 21 0 -21 c0 -20 5 -22 51 -22 l52 0 -7
53 c-3 28 -6 91 -6 139 0 82 -2 90 -28 119 -54 60 -185 59 -236 -2 l-26 -31 0
47 c0 59 -28 100 -84 126 -32 15 -65 19 -153 19 l-113 0 0 -235z m234 123 c39
-55 8 -98 -71 -98 l-53 0 0 60 0 60 54 0 c45 0 58 -4 70 -22z"/>
<path d="M3362 1778 l3 -233 50 0 50 0 1 58 c1 35 7 64 15 72 12 12 21 3 59
-61 l45 -74 52 0 c41 0 53 3 53 15 0 9 -27 56 -60 105 -33 49 -60 93 -60 98 0
5 25 33 55 61 30 29 55 56 55 62 0 5 -23 9 -52 9 -50 0 -55 -2 -108 -55 l-55
-55 3 115 3 115 -56 0 -55 0 2 -232z"/>
<path d="M1810 1935 c0 -52 -1 -55 -25 -55 -22 0 -25 -4 -25 -35 0 -31 3 -35
25 -35 l25 0 0 -103 c0 -67 4 -109 13 -120 14 -19 88 -47 123 -47 22 0 24 4
24 44 0 41 -2 45 -27 48 -28 3 -28 3 -31 91 l-3 87 31 0 c27 0 30 3 30 34 0
29 -4 34 -30 40 -29 5 -30 8 -30 56 l0 50 -50 0 -50 0 0 -55z"/>
<path d="M2300 1887 c-36 -13 -83 -70 -78 -96 2 -10 16 -17 39 -19 29 -2 39 2
53 22 19 30 65 35 90 10 23 -22 13 -32 -42 -40 -103 -15 -162 -57 -162 -117 0
-22 11 -40 40 -69 36 -33 47 -38 89 -38 35 0 53 5 66 20 l18 20 14 -20 c10
-14 25 -20 55 -20 l41 0 -6 136 c-6 142 -14 168 -60 198 -32 21 -116 28 -157
13z"/>
<path d="M1514 1871 c-99 -60 -110 -215 -21 -286 18 -14 37 -30 44 -35 7 -6
39 -10 71 -10 55 0 62 3 106 41 25 22 46 49 46 60 0 16 -7 19 -49 19 -31 0
-53 -5 -61 -15 -13 -16 -67 -20 -86 -7 -6 4 -16 17 -23 30 l-12 22 122 0 122
0 -7 46 c-7 57 -39 110 -80 135 -42 26 -130 26 -172 0z"/>
<path d="M2127 1873 c-11 -11 -17 -13 -17 -5 0 8 -17 12 -50 12 l-50 0 0 -170
0 -170 49 0 49 0 4 111 c3 102 5 112 27 130 13 10 34 19 47 19 22 0 24 4 24
45 0 44 -1 45 -33 45 -18 0 -40 -8 -50 -17z"/>
</g>
</svg>
